<svg width="60" height="60" viewBox="0 0 60 60" fill="none" xmlns="http://www.w3.org/2000/svg">
<g id="Frame">
<g id="Group">
<path id="Vector" d="M11.5853 54.3899C11.4358 54.3894 11.2885 54.3532 11.1557 54.2844C11.0229 54.2156 10.9084 54.1161 10.8217 53.9943C10.735 53.8724 10.6786 53.7316 10.6572 53.5836C10.6357 53.4355 10.6499 53.2845 10.6985 53.1431L16.676 35.9774C16.7668 35.7546 16.9398 35.5752 17.1591 35.4761C17.3784 35.377 17.6274 35.3659 17.8546 35.445C18.0819 35.5242 18.2701 35.6875 18.3805 35.9013C18.4909 36.1152 18.515 36.3632 18.4478 36.5943L12.4703 53.7599C12.4065 53.9438 12.287 54.1033 12.1284 54.2162C11.9698 54.3291 11.78 54.3898 11.5853 54.3899Z" fill="#236DFE"/>
<path id="Vector_2" d="M17.8122 58.1249H11.2159C9.7553 58.1249 8.40342 57.4612 7.50905 56.3062C6.61467 55.1512 6.3128 53.6774 6.6803 52.2637L10.479 37.5618C10.5076 37.4403 10.5602 37.3257 10.6336 37.2248C10.7071 37.1238 10.8 37.0386 10.9068 36.974C11.0136 36.9094 11.1323 36.8669 11.2558 36.8488C11.3793 36.8307 11.5052 36.8375 11.6261 36.8687C11.747 36.8999 11.8604 36.9549 11.9597 37.0306C12.059 37.1062 12.1422 37.2009 12.2044 37.3091C12.2666 37.4174 12.3066 37.5369 12.322 37.6608C12.3374 37.7847 12.3279 37.9104 12.294 38.0306L8.4953 52.7324C8.27592 53.5818 8.45592 54.4649 8.99405 55.1568C9.5303 55.8524 10.3403 56.2499 11.2159 56.2499H17.8122C18.0608 56.2499 18.2993 56.3487 18.4751 56.5245C18.6509 56.7003 18.7497 56.9388 18.7497 57.1874C18.7497 57.4361 18.6509 57.6745 18.4751 57.8504C18.2993 58.0262 18.0608 58.1249 17.8122 58.1249ZM27.0709 50.6249H26.4409C24.9109 50.6249 23.5215 49.9124 22.6309 48.6693C21.7403 47.4262 21.5097 45.8831 22.0009 44.4337L24.4722 37.5881L16.7059 37.2131C15.1178 37.0668 13.6853 36.2812 12.7347 35.0531C11.784 33.8249 11.379 32.2406 11.6284 30.7068L13.4715 20.0681C13.4901 19.9445 13.5331 19.8259 13.5981 19.7192C13.6631 19.6125 13.7488 19.5199 13.8501 19.4468C13.9514 19.3737 14.0663 19.3216 14.1881 19.2935C14.3098 19.2654 14.4359 19.262 14.559 19.2833C14.6821 19.3047 14.7997 19.3505 14.9049 19.4179C15.01 19.4854 15.1007 19.5732 15.1714 19.6762C15.2422 19.7791 15.2916 19.8952 15.3168 20.0176C15.3421 20.1399 15.3426 20.2661 15.3184 20.3887L13.4772 31.0162C13.3938 31.5228 13.4165 32.0413 13.544 32.5387C13.6715 33.036 13.901 33.5015 14.2178 33.9056C14.8609 34.7362 15.7909 35.2462 16.8372 35.3437L25.8297 35.7768C25.9761 35.784 26.1188 35.8253 26.2464 35.8977C26.3739 35.97 26.4827 36.0712 26.564 36.1932C26.6454 36.3152 26.697 36.4545 26.7146 36.6001C26.7323 36.7456 26.7157 36.8933 26.6659 37.0312L23.769 45.0524C23.4803 45.9037 23.619 46.8299 24.1534 47.5762C24.6878 48.3224 25.5222 48.7499 26.4409 48.7499H27.0709C27.3196 48.7499 27.558 48.8487 27.7338 49.0245C27.9096 49.2003 28.0084 49.4388 28.0084 49.6874C28.0084 49.9361 27.9096 50.1745 27.7338 50.3504C27.558 50.5262 27.3196 50.6249 27.0709 50.6249Z" fill="#236DFE"/>
<path id="Vector_3" d="M4.68918 30.8757C4.26817 30.8751 3.85263 30.7802 3.47311 30.5979C3.09359 30.4157 2.75973 30.1507 2.49607 29.8224C2.2324 29.4942 2.04563 29.1111 1.94948 28.7012C1.85333 28.2913 1.85023 27.8651 1.94043 27.4538L3.82106 19.9894C4.01043 19.1457 4.60856 18.4144 5.42043 18.0563L12.2173 15.0357C13.7271 14.3663 15.3807 14.0866 17.0267 14.2219L26.4842 15.0094C27.0636 15.0563 27.6054 15.2794 28.0517 15.6507L32.1861 19.0969L36.6579 16.6632C36.9759 16.4808 37.3271 16.3637 37.6909 16.3186C38.0547 16.2736 38.4238 16.3015 38.7767 16.4007C39.5004 16.5976 40.1042 17.0663 40.4792 17.7188C40.8523 18.3713 40.9479 19.1288 40.7511 19.8544C40.5542 20.5801 40.0854 21.1838 39.4329 21.5569L33.2586 24.9507C32.761 25.2287 32.191 25.3501 31.6233 25.2989C31.0556 25.2477 30.5165 25.0264 30.0767 24.6638L27.2754 22.9538C27.0775 22.8174 26.9393 22.6102 26.8895 22.375C26.8397 22.1397 26.882 21.8943 27.0077 21.6894C27.1334 21.4844 27.3329 21.3354 27.5651 21.2731C27.7974 21.2108 28.0446 21.2399 28.2561 21.3544L31.1661 23.1413C31.5748 23.4694 32.0042 23.5069 32.3436 23.3138L38.5161 19.9219C38.7287 19.7975 38.8834 19.5938 38.9463 19.3556C39.0092 19.1174 38.9752 18.8639 38.8517 18.6507C38.7279 18.4354 38.5241 18.2777 38.2845 18.212C38.045 18.1463 37.7892 18.178 37.5729 18.3001L32.5236 21.0488C32.3584 21.139 32.1699 21.1774 31.9827 21.159C31.7954 21.1406 31.618 21.0663 31.4736 20.9457L26.8498 17.0926C26.7017 16.9687 26.519 16.8935 26.3267 16.8769L16.8692 16.0894C15.5375 15.98 14.1997 16.207 12.9786 16.7494L6.18168 19.7701C6.04743 19.8297 5.92901 19.92 5.83589 20.0336C5.74278 20.1472 5.67755 20.2811 5.64543 20.4244L3.76481 27.8851C3.65981 28.3632 3.97856 28.8657 4.48293 28.9782C4.98731 29.0907 5.49168 28.7588 5.60231 28.2676L7.28043 21.7238C7.32009 21.5691 7.39861 21.4271 7.50854 21.3113C7.61846 21.1955 7.75616 21.1096 7.90856 21.0619L14.1561 19.1063C14.6511 18.9488 15.1742 19.2263 15.3298 19.7213C15.4854 20.2163 15.2098 20.7413 14.7148 20.8951L8.96606 22.6951L7.42668 28.7044C7.28054 29.3212 6.93101 29.8708 6.4344 30.2647C5.93779 30.6586 5.32303 30.8738 4.68918 30.8757Z" fill="#236DFE"/>
<path id="Vector_4" d="M26.5425 46.875C26.3818 46.8748 26.2239 46.8334 26.0838 46.7546C25.9438 46.6758 25.8263 46.5624 25.7427 46.4252C25.6591 46.2879 25.6122 46.1315 25.6065 45.9709C25.6008 45.8103 25.6364 45.651 25.71 45.5081L30.9469 35.3456C31.0577 35.0748 31.1039 34.7818 31.0817 34.49C31.0595 34.1981 30.9695 33.9155 30.819 33.6645C30.6685 33.4135 30.4615 33.2011 30.2146 33.0441C29.9676 32.8871 29.6874 32.7898 29.3963 32.76L22.0238 31.5881C21.7575 31.5469 21.5213 31.3913 21.3788 31.1625C21.2363 30.9338 21.1969 30.6544 21.2719 30.3975L24.4706 19.5375C24.504 19.4178 24.5609 19.3058 24.6379 19.2083C24.7149 19.1107 24.8106 19.0294 24.9193 18.9692C25.028 18.9089 25.1477 18.8709 25.2712 18.8573C25.3948 18.8437 25.5198 18.8548 25.6391 18.89C25.7583 18.9252 25.8693 18.9837 25.9657 19.0622C26.0621 19.1407 26.1419 19.2376 26.2005 19.3473C26.2591 19.4569 26.2953 19.5771 26.307 19.7008C26.3188 19.8246 26.3057 19.9494 26.2688 20.0681L23.3719 29.9044L29.6362 30.9019C30.7781 31.0125 31.8525 31.7044 32.4544 32.7431C33.0562 33.7819 33.1256 35.0588 32.6344 36.1575L27.375 46.3669C27.2967 46.5202 27.1775 46.6489 27.0305 46.7385C26.8836 46.8282 26.7147 46.8755 26.5425 46.875ZM22.5 13.125C19.3987 13.125 16.875 10.6012 16.875 7.5C16.875 4.39875 19.3987 1.875 22.5 1.875C25.6012 1.875 28.125 4.39875 28.125 7.5C28.125 10.6012 25.6012 13.125 22.5 13.125ZM22.5 3.75C20.4319 3.75 18.75 5.43187 18.75 7.5C18.75 9.56813 20.4319 11.25 22.5 11.25C24.5681 11.25 26.25 9.56813 26.25 7.5C26.25 5.43187 24.5681 3.75 22.5 3.75ZM32.8125 50.625H27.1875C26.9389 50.625 26.7004 50.5262 26.5246 50.3504C26.3488 50.1746 26.25 49.9361 26.25 49.6875C26.25 49.4389 26.3488 49.2004 26.5246 49.0246C26.7004 48.8488 26.9389 48.75 27.1875 48.75H31.875V45.9375C31.875 45.6889 31.9738 45.4504 32.1496 45.2746C32.3254 45.0988 32.5639 45 32.8125 45H39.375V42.1875C39.375 41.9389 39.4738 41.7004 39.6496 41.5246C39.8254 41.3488 40.0639 41.25 40.3125 41.25H55.3125C55.5611 41.25 55.7996 41.3488 55.9754 41.5246C56.1512 41.7004 56.25 41.9389 56.25 42.1875V45.9375C56.25 46.1861 56.1512 46.4246 55.9754 46.6004C55.7996 46.7762 55.5611 46.875 55.3125 46.875C55.0639 46.875 54.8254 46.7762 54.6496 46.6004C54.4738 46.4246 54.375 46.1861 54.375 45.9375V43.125H41.25V45.9375C41.25 46.1861 41.1512 46.4246 40.9754 46.6004C40.7996 46.7762 40.5611 46.875 40.3125 46.875H33.75V49.6875C33.75 49.9361 33.6512 50.1746 33.4754 50.3504C33.2996 50.5262 33.0611 50.625 32.8125 50.625Z" fill="#236DFE"/>
<path id="Vector_5" d="M47.8125 43.125C47.5639 43.125 47.3254 43.0262 47.1496 42.8504C46.9738 42.6746 46.875 42.4361 46.875 42.1875V3.75C46.875 3.50136 46.9738 3.2629 47.1496 3.08709C47.3254 2.91127 47.5639 2.8125 47.8125 2.8125C48.0611 2.8125 48.2996 2.91127 48.4754 3.08709C48.6512 3.2629 48.75 3.50136 48.75 3.75V42.1875C48.75 42.4361 48.6512 42.6746 48.4754 42.8504C48.2996 43.0262 48.0611 43.125 47.8125 43.125ZM17.8125 58.125H12.1875C11.9389 58.125 11.7004 58.0262 11.5246 57.8504C11.3488 57.6746 11.25 57.4361 11.25 57.1875C11.25 56.9389 11.3488 56.7004 11.5246 56.5246C11.7004 56.3488 11.9389 56.25 12.1875 56.25H16.875V53.4375C16.875 53.1889 16.9738 52.9504 17.1496 52.7746C17.3254 52.5988 17.5639 52.5 17.8125 52.5H24.375V50.625C24.375 50.3764 24.4738 50.1379 24.6496 49.9621C24.8254 49.7863 25.0639 49.6875 25.3125 49.6875C25.5611 49.6875 25.7996 49.7863 25.9754 49.9621C26.1512 50.1379 26.25 50.3764 26.25 50.625V53.4375C26.25 53.6861 26.1512 53.9246 25.9754 54.1004C25.7996 54.2762 25.5611 54.375 25.3125 54.375H18.75V57.1875C18.75 57.4361 18.6512 57.6746 18.4754 57.8504C18.2996 58.0262 18.0611 58.125 17.8125 58.125Z" fill="#236DFE"/>
<path id="Vector_6" d="M57.1875 11.25H47.8125C47.5639 11.25 47.3254 11.1512 47.1496 10.9754C46.9738 10.7996 46.875 10.5611 46.875 10.3125V2.8125C46.875 2.56386 46.9738 2.3254 47.1496 2.14959C47.3254 1.97377 47.5639 1.875 47.8125 1.875C48.0611 1.875 48.2996 1.97377 48.4754 2.14959C48.6512 2.3254 48.75 2.56386 48.75 2.8125V9.375H55.6706L54.4744 6.9825C54.4096 6.85229 54.3759 6.70885 54.3759 6.56344C54.3759 6.41802 54.4096 6.27458 54.4744 6.14437L55.6706 3.75H51.5625C51.3139 3.75 51.0754 3.65123 50.8996 3.47541C50.7238 3.2996 50.625 3.06114 50.625 2.8125C50.625 2.56386 50.7238 2.3254 50.8996 2.14959C51.0754 1.97377 51.3139 1.875 51.5625 1.875H57.1875C57.3471 1.87516 57.504 1.91608 57.6434 1.99387C57.7828 2.07165 57.9 2.18374 57.9839 2.3195C58.0679 2.45526 58.1158 2.6102 58.1231 2.76965C58.1303 2.9291 58.0968 3.08777 58.0256 3.23063L56.3606 6.5625L58.0256 9.8925C58.0967 10.0355 58.1302 10.1942 58.1228 10.3537C58.1155 10.5132 58.0676 10.6683 57.9837 10.8041C57.8999 10.94 57.7827 11.0522 57.6434 11.1302C57.5041 11.2083 57.3472 11.2495 57.1875 11.25Z" fill="#236DFE"/>
</g>
</g>
</svg>
