<svg width="60" height="60" viewBox="0 0 60 60" fill="none" xmlns="http://www.w3.org/2000/svg">
<g id="Frame">
<g id="Group">
<path id="Vector" d="M6.56437 58.125C6.42697 58.1253 6.29119 58.0953 6.16664 58.0373C6.04209 57.9793 5.93181 57.8946 5.84362 57.7892C5.75543 57.6839 5.69148 57.5604 5.65629 57.4276C5.6211 57.2948 5.61554 57.1558 5.64 57.0206L9.39 36.3956L9.37687 28.0312C8.31824 27.8145 7.36682 27.2391 6.68327 26.4022C5.99972 25.5653 5.62593 24.5181 5.625 23.4375V20.625C5.625 17.5238 8.14875 15 11.25 15H19.6875C23.3062 15 26.25 17.9438 26.25 21.5625V23.4375C26.2498 24.5178 25.8764 25.5649 25.1931 26.4016C24.5098 27.2383 23.5585 27.8133 22.5 28.0294V57.1875C22.5 57.4361 22.4012 57.6746 22.2254 57.8504C22.0496 58.0262 21.8111 58.125 21.5625 58.125C21.3139 58.125 21.0754 58.0262 20.8996 57.8504C20.7238 57.6746 20.625 57.4361 20.625 57.1875V27.1875C20.625 26.9389 20.7238 26.7004 20.8996 26.5246C21.0754 26.3488 21.3139 26.25 21.5625 26.25C22.5619 26.25 23.4956 25.7119 23.9981 24.8456C24.2456 24.42 24.375 23.9344 24.375 23.4375V21.5625C24.375 18.9788 22.2731 16.875 19.6875 16.875H11.25C9.18187 16.875 7.5 18.5569 7.5 20.625V23.4375C7.5 24.9881 8.76187 26.25 10.3125 26.25C10.5611 26.25 10.7996 26.3488 10.9754 26.5246C11.1512 26.7004 11.25 26.9389 11.25 27.1875V36.5625L7.485 57.3544C7.44595 57.5702 7.33244 57.7656 7.16423 57.9064C6.99601 58.0472 6.78374 58.1246 6.56437 58.125ZM15.9375 13.125C12.8362 13.125 10.3125 10.6012 10.3125 7.5C10.3125 4.39875 12.8362 1.875 15.9375 1.875C19.0387 1.875 21.5625 4.39875 21.5625 7.5C21.5625 10.6012 19.0387 13.125 15.9375 13.125ZM15.9375 3.75C13.8675 3.75 12.1875 5.43187 12.1875 7.5C12.1875 9.56813 13.8675 11.25 15.9375 11.25C18.0075 11.25 19.6875 9.56813 19.6875 7.5C19.6875 5.43187 18.0075 3.75 15.9375 3.75Z" fill="#236DFE"/>
<path id="Vector_2" d="M21.5625 25.3125C21.3139 25.3125 21.0754 25.2137 20.8996 25.0379C20.7238 24.8621 20.625 24.6237 20.625 24.375V23.7769C20.625 23.4975 20.5069 23.2425 20.2931 23.0606C20.0794 22.8788 19.8113 22.8019 19.5319 22.8525L12.6506 23.9981C12.2475 24.0661 11.8344 24.0452 11.4402 23.937C11.046 23.8288 10.6801 23.6358 10.3682 23.3716C10.0563 23.1073 9.80579 22.7782 9.63425 22.4071C9.4627 22.036 9.37423 21.632 9.37501 21.2231C9.37501 20.9745 9.47378 20.736 9.64959 20.5602C9.82541 20.3844 10.0639 20.2856 10.3125 20.2856C10.5611 20.2856 10.7996 20.3844 10.9754 20.5602C11.1512 20.736 11.25 20.9745 11.25 21.2231C11.25 21.5025 11.3681 21.7575 11.5819 21.9394C11.6853 22.0285 11.8073 22.0934 11.939 22.1294C12.0707 22.1654 12.2088 22.1716 12.3431 22.1475L19.2244 21.0019C19.6275 20.933 20.0408 20.9531 20.4353 21.0608C20.8298 21.1685 21.196 21.3613 21.5081 21.6255C21.8202 21.8897 22.0708 22.2191 22.2421 22.5904C22.4135 22.9617 22.5015 23.3661 22.5 23.775V24.375C22.5 24.6237 22.4012 24.8621 22.2254 25.0379C22.0496 25.2137 21.8111 25.3125 21.5625 25.3125ZM10.3125 58.125C10.1694 58.1248 10.0282 58.0918 9.89987 58.0285C9.77149 57.9653 9.6593 57.8735 9.57188 57.7602C9.48446 57.6469 9.42414 57.5151 9.39554 57.3749C9.36694 57.2347 9.37082 57.0898 9.40688 56.9513L15.0319 35.3888C15.0886 35.1761 15.2184 34.9901 15.3985 34.8635C15.5785 34.7369 15.7974 34.6777 16.0167 34.6962C16.2361 34.7148 16.4419 34.8099 16.5981 34.965C16.7544 35.1201 16.8511 35.3252 16.8713 35.5444L18.7463 57.1069C18.7626 57.3517 18.6824 57.5931 18.5228 57.7794C18.3631 57.9657 18.1368 58.082 17.8924 58.1034C17.648 58.1247 17.405 58.0494 17.2155 57.8936C17.026 57.7378 16.9051 57.5139 16.8788 57.27L15.4744 41.1169L11.2181 57.4238C11.1665 57.6246 11.0494 57.8026 10.8855 57.9296C10.7215 58.0565 10.5199 58.1253 10.3125 58.125ZM21.5625 28.125H14.0625C13.8139 28.125 13.5754 28.0262 13.3996 27.8504C13.2238 27.6746 13.125 27.4362 13.125 27.1875C13.125 26.9389 13.2238 26.7004 13.3996 26.5246C13.5754 26.3488 13.8139 26.25 14.0625 26.25H21.5625C21.8111 26.25 22.0496 26.3488 22.2254 26.5246C22.4012 26.7004 22.5 26.9389 22.5 27.1875C22.5 27.4362 22.4012 27.6746 22.2254 27.8504C22.0496 28.0262 21.8111 28.125 21.5625 28.125ZM40.3125 52.5C36.6938 52.5 33.75 49.5563 33.75 45.9375V34.6875C33.75 32.1038 31.6481 30 29.0625 30C28.8139 30 28.5754 29.9012 28.3996 29.7254C28.2238 29.5496 28.125 29.3112 28.125 29.0625C28.125 28.8139 28.2238 28.5754 28.3996 28.3996C28.5754 28.2238 28.8139 28.125 29.0625 28.125C32.6813 28.125 35.625 31.0688 35.625 34.6875V45.9375C35.625 48.5213 37.7269 50.625 40.3125 50.625C40.5611 50.625 40.7996 50.7238 40.9754 50.8996C41.1512 51.0754 41.25 51.3139 41.25 51.5625C41.25 51.8112 41.1512 52.0496 40.9754 52.2254C40.7996 52.4012 40.5611 52.5 40.3125 52.5Z" fill="#236DFE"/>
<path id="Vector_3" d="M29.0625 30C28.8139 30 28.5754 29.9012 28.3996 29.7254C28.2238 29.5496 28.125 29.3111 28.125 29.0625C28.125 28.8139 28.2238 28.5754 28.3996 28.3996C28.5754 28.2238 28.8139 28.125 29.0625 28.125C31.6481 28.125 33.75 26.0212 33.75 23.4375V12.1875C33.75 8.56875 36.6938 5.625 40.3125 5.625C40.5611 5.625 40.7996 5.72377 40.9754 5.89959C41.1512 6.0754 41.25 6.31386 41.25 6.5625C41.25 6.81114 41.1512 7.0496 40.9754 7.22541C40.7996 7.40123 40.5611 7.5 40.3125 7.5C39.0698 7.50149 37.8783 7.99583 36.9996 8.87458C36.1208 9.75334 35.6265 10.9448 35.625 12.1875V23.4375C35.625 27.0562 32.6812 30 29.0625 30ZM49.6875 33.75C47.1019 33.75 45 31.6462 45 29.0625C45 26.4788 47.1019 24.375 49.6875 24.375C52.2731 24.375 54.375 26.4788 54.375 29.0625C54.375 31.6462 52.2731 33.75 49.6875 33.75ZM49.6875 26.25C48.1369 26.25 46.875 27.5119 46.875 29.0625C46.875 30.6131 48.1369 31.875 49.6875 31.875C51.2381 31.875 52.5 30.6131 52.5 29.0625C52.5 27.5119 51.2381 26.25 49.6875 26.25ZM49.6875 56.25C47.1019 56.25 45 54.1463 45 51.5625C45 48.9787 47.1019 46.875 49.6875 46.875C52.2731 46.875 54.375 48.9787 54.375 51.5625C54.375 54.1463 52.2731 56.25 49.6875 56.25ZM49.6875 48.75C48.1369 48.75 46.875 50.0119 46.875 51.5625C46.875 53.1131 48.1369 54.375 49.6875 54.375C51.2381 54.375 52.5 53.1131 52.5 51.5625C52.5 50.0119 51.2381 48.75 49.6875 48.75ZM49.6875 11.25C47.1019 11.25 45 9.14625 45 6.5625C45 3.97875 47.1019 1.875 49.6875 1.875C52.2731 1.875 54.375 3.97875 54.375 6.5625C54.375 9.14625 52.2731 11.25 49.6875 11.25ZM49.6875 3.75C48.1369 3.75 46.875 5.01187 46.875 6.5625C46.875 8.11312 48.1369 9.375 49.6875 9.375C51.2381 9.375 52.5 8.11312 52.5 6.5625C52.5 5.01187 51.2381 3.75 49.6875 3.75ZM40.3125 30H36.5625C36.3139 30 36.0754 29.9012 35.8996 29.7254C35.7238 29.5496 35.625 29.3111 35.625 29.0625C35.625 28.8139 35.7238 28.5754 35.8996 28.3996C36.0754 28.2238 36.3139 28.125 36.5625 28.125H40.3125C40.5611 28.125 40.7996 28.2238 40.9754 28.3996C41.1512 28.5754 41.25 28.8139 41.25 29.0625C41.25 29.3111 41.1512 29.5496 40.9754 29.7254C40.7996 29.9012 40.5611 30 40.3125 30ZM29.0625 58.125H21.5625C21.3139 58.125 21.0754 58.0262 20.8996 57.8504C20.7238 57.6746 20.625 57.4361 20.625 57.1875C20.625 56.9389 20.7238 56.7004 20.8996 56.5246C21.0754 56.3488 21.3139 56.25 21.5625 56.25H29.0625C29.3111 56.25 29.5496 56.3488 29.7254 56.5246C29.9012 56.7004 30 56.9389 30 57.1875C30 57.4361 29.9012 57.6746 29.7254 57.8504C29.5496 58.0262 29.3111 58.125 29.0625 58.125Z" fill="#236DFE"/>
<path id="Vector_4" d="M32.8125 58.125C33.3303 58.125 33.75 57.7053 33.75 57.1875C33.75 56.6697 33.3303 56.25 32.8125 56.25C32.2947 56.25 31.875 56.6697 31.875 57.1875C31.875 57.7053 32.2947 58.125 32.8125 58.125Z" fill="#236DFE"/>
</g>
</g>
</svg>
