<svg width="60" height="60" viewBox="0 0 60 60" fill="none" xmlns="http://www.w3.org/2000/svg">
<g id="Frame">
<g id="Group">
<path id="Vector" d="M57.1875 48.75H21.5625C21.3139 48.75 21.0754 48.6512 20.8996 48.4754C20.7238 48.2996 20.625 48.0611 20.625 47.8125C20.625 47.5639 20.7238 47.3254 20.8996 47.1496C21.0754 46.9738 21.3139 46.875 21.5625 46.875H57.1875C57.4361 46.875 57.6746 46.9738 57.8504 47.1496C58.0262 47.3254 58.125 47.5639 58.125 47.8125C58.125 48.0611 58.0262 48.2996 57.8504 48.4754C57.6746 48.6512 57.4361 48.75 57.1875 48.75Z" fill="#236DFE"/>
<path id="Vector_2" d="M55.3125 48.75C55.0639 48.75 54.8254 48.6512 54.6496 48.4754C54.4738 48.2996 54.375 48.0611 54.375 47.8125V5.625H19.6875C19.4389 5.625 19.2004 5.52623 19.0246 5.35041C18.8488 5.1746 18.75 4.93614 18.75 4.6875C18.75 4.43886 18.8488 4.2004 19.0246 4.02459C19.2004 3.84877 19.4389 3.75 19.6875 3.75H57.1875C57.4361 3.75 57.6746 3.84877 57.8504 4.02459C58.0262 4.2004 58.125 4.43886 58.125 4.6875C58.125 4.93614 58.0262 5.1746 57.8504 5.35041C57.6746 5.52623 57.4361 5.625 57.1875 5.625H56.25V47.8125C56.25 48.0611 56.1512 48.2996 55.9754 48.4754C55.7996 48.6512 55.5611 48.75 55.3125 48.75ZM11.25 13.125C8.14875 13.125 5.625 10.6012 5.625 7.5C5.625 4.39875 8.14875 1.875 11.25 1.875C14.3512 1.875 16.875 4.39875 16.875 7.5C16.875 10.6012 14.3512 13.125 11.25 13.125ZM11.25 3.75C10.7574 3.75012 10.2697 3.84727 9.81465 4.03588C9.35961 4.2245 8.94618 4.50089 8.59796 4.84929C8.24974 5.19768 7.97355 5.61125 7.78516 6.06638C7.59678 6.52151 7.49988 7.00929 7.5 7.50187C7.50012 7.99445 7.59727 8.48219 7.78588 8.93722C7.9745 9.39226 8.25089 9.80569 8.59929 10.1539C8.94768 10.5021 9.36125 10.7783 9.81638 10.9667C10.2715 11.1551 10.7593 11.252 11.2519 11.2519C12.2467 11.2516 13.2007 10.8562 13.9039 10.1526C14.6072 9.44897 15.0021 8.49481 15.0019 7.5C15.0016 6.50519 14.6062 5.55122 13.9026 4.84796C13.199 4.1447 12.2448 3.74975 11.25 3.75Z" fill="#236DFE"/>
<path id="Vector_3" d="M2.81248 58.125C2.67623 58.1252 2.54158 58.0957 2.41789 58.0386C2.29421 57.9815 2.18446 57.898 2.09629 57.7942C2.00813 57.6903 1.94366 57.5685 1.90738 57.4371C1.8711 57.3058 1.86388 57.1681 1.88623 57.0337L5.14873 37.4625C4.74593 37.5288 4.33354 37.5068 3.9401 37.3979C3.54667 37.289 3.18161 37.0959 2.87022 36.832C2.55882 36.568 2.30853 36.2395 2.13668 35.8692C1.96483 35.4989 1.87554 35.0957 1.87498 34.6875V21.5625C1.87498 18.5269 4.3331 15 7.49998 15H34.6875C36.2381 15 37.5 16.2619 37.5 17.8125C37.5 19.3631 36.2381 20.625 34.6875 20.625H18.75V57.1875C18.75 57.4361 18.6512 57.6746 18.4754 57.8504C18.2996 58.0262 18.0611 58.125 17.8125 58.125C17.5638 58.125 17.3254 58.0262 17.1496 57.8504C16.9737 57.6746 16.875 57.4361 16.875 57.1875V19.6875C16.875 19.4389 16.9737 19.2004 17.1496 19.0246C17.3254 18.8488 17.5638 18.75 17.8125 18.75H34.6875C34.9361 18.75 35.1746 18.6512 35.3504 18.4754C35.5262 18.2996 35.625 18.0611 35.625 17.8125C35.625 17.5639 35.5262 17.3254 35.3504 17.1496C35.1746 16.9738 34.9361 16.875 34.6875 16.875H7.49998C5.4806 16.875 3.74998 19.4531 3.74998 21.5625V34.6875C3.7498 34.9041 3.82461 35.114 3.96169 35.2817C4.09878 35.4493 4.28968 35.5644 4.50196 35.6072C4.71425 35.6501 4.93483 35.6181 5.12621 35.5168C5.3176 35.4154 5.468 35.2509 5.55185 35.0513L5.6381 34.5337C5.68257 34.3045 5.80841 34.0992 5.99243 33.9555C6.17644 33.8118 6.40621 33.7395 6.63935 33.7519C6.87379 33.772 7.09218 33.8793 7.25148 34.0524C7.41078 34.2256 7.49944 34.4522 7.49998 34.6875C7.49998 34.9781 7.45685 35.2575 7.37435 35.52L3.73685 57.3413C3.70082 57.5603 3.58805 57.7594 3.41871 57.903C3.24937 58.0466 3.03449 58.1253 2.81248 58.125Z" fill="#236DFE"/>
<path id="Vector_4" d="M6.56227 35.625C6.31363 35.625 6.07517 35.5262 5.89935 35.3504C5.72354 35.1746 5.62477 34.9361 5.62477 34.6875V23.4375C5.62477 23.1889 5.72354 22.9504 5.89935 22.7746C6.07517 22.5988 6.31363 22.5 6.56227 22.5C6.81091 22.5 7.04936 22.5988 7.22518 22.7746C7.401 22.9504 7.49977 23.1889 7.49977 23.4375V34.6875C7.49977 34.9361 7.401 35.1746 7.22518 35.3504C7.04936 35.5262 6.81091 35.625 6.56227 35.625ZM6.56227 58.125C6.419 58.125 6.27764 58.0922 6.14902 58.0291C6.02041 57.966 5.90797 57.8743 5.82034 57.7609C5.73271 57.6476 5.67222 57.5157 5.64352 57.3753C5.61482 57.235 5.61866 57.0899 5.65477 56.9513L11.2798 35.3888C11.3355 35.1748 11.465 34.9875 11.6455 34.8598C11.8259 34.7321 12.0457 34.6723 12.266 34.6909C12.4862 34.7095 12.6928 34.8054 12.8493 34.9615C13.0058 35.1177 13.102 35.3241 13.121 35.5444L14.996 57.1069C15.0176 57.3548 14.9399 57.6011 14.7799 57.7917C14.6199 57.9823 14.3908 58.1015 14.1429 58.1231C13.895 58.1448 13.6487 58.067 13.4581 57.907C13.2675 57.747 13.1483 57.5179 13.1266 57.27L11.7223 41.1169L7.46789 57.4237C7.41567 57.6243 7.29847 57.8019 7.13462 57.9288C6.97077 58.0556 6.7695 58.1246 6.56227 58.125ZM45.9373 15.9375C43.8691 15.9375 42.1873 14.2556 42.1873 12.1875C42.1873 10.1194 43.8691 8.4375 45.9373 8.4375C48.0054 8.4375 49.6873 10.1194 49.6873 12.1875C49.6873 14.2556 48.0054 15.9375 45.9373 15.9375ZM45.9373 10.3125C44.9041 10.3125 44.0623 11.1544 44.0623 12.1875C44.0623 13.2206 44.9041 14.0625 45.9373 14.0625C46.9704 14.0625 47.8123 13.2206 47.8123 12.1875C47.8123 11.1544 46.9704 10.3125 45.9373 10.3125ZM27.1873 43.125H21.5623C21.3136 43.125 21.0752 43.0262 20.8994 42.8504C20.7235 42.6746 20.6248 42.4361 20.6248 42.1875C20.6248 41.9389 20.7235 41.7004 20.8994 41.5246C21.0752 41.3488 21.3136 41.25 21.5623 41.25H27.1873C37.0085 41.25 44.9998 33.2587 44.9998 23.4375V18.75C44.9998 18.5014 45.0985 18.2629 45.2744 18.0871C45.4502 17.9113 45.6886 17.8125 45.9373 17.8125C46.1859 17.8125 46.4244 17.9113 46.6002 18.0871C46.776 18.2629 46.8748 18.5014 46.8748 18.75V23.4375C46.8748 34.2938 38.0435 43.125 27.1873 43.125Z" fill="#236DFE"/>
<path id="Vector_5" d="M49.6873 24.3751C49.5464 24.3754 49.4073 24.3439 49.2803 24.2828C49.1534 24.2218 49.0419 24.1328 48.9542 24.0226L45.9373 20.2501L42.9204 24.0226C42.765 24.2167 42.5389 24.3413 42.2917 24.3687C42.0445 24.3961 41.7965 24.3242 41.6023 24.1688C41.4081 24.0134 41.2836 23.7872 41.2562 23.54C41.2288 23.2928 41.3007 23.0449 41.4561 22.8507L45.2061 18.1632C45.2972 18.0586 45.4097 17.9747 45.536 17.9173C45.6623 17.8598 45.7995 17.8301 45.9382 17.8301C46.077 17.8301 46.2141 17.8598 46.3404 17.9173C46.4667 17.9747 46.5793 18.0586 46.6704 18.1632L50.4204 22.8507C50.5304 22.9889 50.5992 23.1552 50.6189 23.3307C50.6387 23.5062 50.6085 23.6837 50.532 23.8428C50.4555 24.002 50.3356 24.1363 50.1862 24.2305C50.0368 24.3246 49.8639 24.3747 49.6873 24.3751ZM27.1873 35.6251C27.002 35.625 26.8209 35.5701 26.6668 35.4672C26.5128 35.3643 26.3926 35.218 26.3216 35.0469C26.2506 34.8758 26.2319 34.6875 26.2678 34.5057C26.3038 34.3239 26.3927 34.1569 26.5236 34.0257L32.1486 28.4007C32.3254 28.2299 32.5622 28.1354 32.808 28.1376C33.0538 28.1397 33.2889 28.2383 33.4628 28.4121C33.6366 28.5859 33.7352 28.8211 33.7373 29.0669C33.7394 29.3127 33.645 29.5495 33.4742 29.7263L27.8492 35.3513C27.7623 35.4383 27.6591 35.5072 27.5455 35.5542C27.4319 35.6011 27.3102 35.6252 27.1873 35.6251Z" fill="#236DFE"/>
<path id="Vector_6" d="M32.8127 35.6252C32.5639 35.6253 32.3253 35.5269 32.1489 35.3515L26.5239 29.7265C26.3531 29.5497 26.2586 29.3129 26.2608 29.067C26.2629 28.8212 26.3615 28.5861 26.5353 28.4123C26.7092 28.2385 26.9443 28.1399 27.1901 28.1377C27.4359 28.1356 27.6727 28.2301 27.8495 28.4009L33.4745 34.0259C33.6052 34.157 33.6942 34.3238 33.7302 34.5054C33.7662 34.687 33.7476 34.8752 33.6768 35.0462C33.6061 35.2173 33.4862 35.3635 33.3324 35.4666C33.1786 35.5696 32.9978 35.6248 32.8127 35.6252Z" fill="#236DFE"/>
</g>
</g>
</svg>
