<svg width="60" height="60" viewBox="0 0 60 60" fill="none" xmlns="http://www.w3.org/2000/svg">
<g id="Frame">
<g id="Group">
<path id="Vector" d="M36.5625 58.1249C36.3139 58.1249 36.0754 58.0261 35.8996 57.8503C35.7238 57.6745 35.625 57.4361 35.625 57.1874V19.5168C35.6251 19.2776 35.7166 19.0475 35.8808 18.8736C36.0449 18.6996 36.2694 18.595 36.5081 18.5812C46.7625 17.968 52.5975 15.2118 54.63 14.0549C55.2506 13.7418 55.4438 13.1793 55.2169 12.7143C55.1067 12.4917 54.9132 12.3216 54.6783 12.2409C54.4435 12.1601 54.1863 12.1753 53.9625 12.283C53.16 12.7387 45.4106 16.8749 30.7894 16.8749C16.62 16.8749 9.24939 13.0499 7.91439 12.283C7.69374 12.1735 7.43871 12.1559 7.20506 12.2339C6.9714 12.3119 6.77814 12.4792 6.66752 12.6993C6.61101 12.809 6.5768 12.9288 6.56687 13.0518C6.55694 13.1748 6.57148 13.2985 6.60967 13.4159C6.64785 13.5332 6.70891 13.6418 6.78932 13.7354C6.86973 13.829 6.9679 13.9057 7.07814 13.9612C8.77689 14.9587 14.6719 17.9868 25.3688 18.5999C25.8619 18.6262 26.25 19.0368 26.25 19.5337V57.1874C26.25 57.4361 26.1512 57.6745 25.9754 57.8503C25.7996 58.0261 25.5612 58.1249 25.3125 58.1249C25.0639 58.1249 24.8254 58.0261 24.6496 57.8503C24.4738 57.6745 24.375 57.4361 24.375 57.1874V20.413C15 19.6912 8.31939 16.8655 6.27377 15.6599C4.84127 14.9249 4.29189 13.2299 4.99689 11.8462C5.3358 11.184 5.92292 10.6828 6.63008 10.452C7.33723 10.2212 8.10698 10.2795 8.77127 10.6143C10.1119 11.383 17.0963 14.9999 30.7894 14.9999C44.9306 14.9999 52.2825 11.0812 53.0738 10.6349C54.5438 9.92241 56.2275 10.5112 56.9044 11.8949C57.5775 13.288 56.9981 14.9718 55.6144 15.6524C53.4713 16.8712 46.875 19.6537 37.5 20.3943V57.1874C37.5 57.4361 37.4012 57.6745 37.2254 57.8503C37.0496 58.0261 36.8112 58.1249 36.5625 58.1249Z" fill="#236DFE"/>
<path id="Vector_2" d="M30.9376 37.5C30.6889 37.5 30.4505 37.5988 30.2747 37.7746C30.0988 37.9504 30.0001 38.1889 30.0001 38.4375V57.1875C30.0001 57.4361 30.0988 57.6746 30.2747 57.8504C30.4505 58.0262 30.6889 58.125 30.9376 58.125C31.1862 58.125 31.4247 58.0262 31.6005 57.8504C31.7763 57.6746 31.8751 57.4361 31.8751 57.1875V38.4375C31.8751 38.1889 31.7763 37.9504 31.6005 37.7746C31.4247 37.5988 31.1862 37.5 30.9376 37.5ZM30.9395 13.125C27.8382 13.125 25.3145 10.6012 25.3145 7.5C25.3145 4.39875 27.8382 1.875 30.9395 1.875C34.0407 1.875 36.5645 4.39875 36.5645 7.5C36.5645 10.6012 34.0407 13.125 30.9395 13.125ZM30.9395 3.75C30.4469 3.75012 29.9591 3.84727 29.5041 4.03588C29.0491 4.2245 28.6356 4.50089 28.2874 4.84929C27.9392 5.19768 27.663 5.61125 27.4746 6.06638C27.2862 6.52151 27.1893 7.00929 27.1895 7.50187C27.1896 7.99445 27.2867 8.48219 27.4753 8.93722C27.6639 9.39226 27.9403 9.80569 28.2887 10.1539C28.6371 10.5021 29.0507 10.7783 29.5058 10.9667C29.961 11.1551 30.4487 11.252 30.9413 11.2519C31.9361 11.2516 32.8901 10.8562 33.5934 10.1526C34.2966 9.44897 34.6916 8.49481 34.6913 7.5C34.6911 6.50519 34.2957 5.55122 33.592 4.84796C32.8884 4.1447 31.9343 3.74975 30.9395 3.75ZM53.4376 58.125C53.1889 58.125 52.9505 58.0262 52.7747 57.8504C52.5988 57.6746 52.5001 57.4361 52.5001 57.1875V47.8125C52.5001 47.5639 52.5988 47.3254 52.7747 47.1496C52.9505 46.9738 53.1889 46.875 53.4376 46.875C53.6862 46.875 53.9247 46.9738 54.1005 47.1496C54.2763 47.3254 54.3751 47.5639 54.3751 47.8125C54.3751 48.0611 54.4738 48.2996 54.6497 48.4754C54.8255 48.6512 55.0639 48.75 55.3126 48.75C55.5612 48.75 55.7997 48.6512 55.9755 48.4754C56.1513 48.2996 56.2501 48.0611 56.2501 47.8125V40.3125C56.2501 38.2031 54.5195 35.625 52.5001 35.625H45.0001C42.9807 35.625 41.2501 38.2031 41.2501 40.3125V47.8125C41.2501 48.0611 41.3488 48.2996 41.5247 48.4754C41.7005 48.6512 41.9389 48.75 42.1876 48.75C42.4362 48.75 42.6747 48.6512 42.8505 48.4754C43.0263 48.2996 43.1251 48.0611 43.1251 47.8125C43.1251 47.5639 43.2238 47.3254 43.3997 47.1496C43.5755 46.9738 43.8139 46.875 44.0626 46.875C44.3112 46.875 44.5497 46.9738 44.7255 47.1496C44.9013 47.3254 45.0001 47.5639 45.0001 47.8125V57.1875C45.0001 57.4361 44.9013 57.6746 44.7255 57.8504C44.5497 58.0262 44.3112 58.125 44.0626 58.125C43.8139 58.125 43.5755 58.0262 43.3997 57.8504C43.2238 57.6746 43.1251 57.4361 43.1251 57.1875V50.4656C42.7007 50.6148 42.2469 50.6601 41.8014 50.5978C41.356 50.5355 40.9319 50.3675 40.5648 50.1077C40.1976 49.8479 39.898 49.504 39.691 49.1047C39.484 48.7054 39.3757 48.2623 39.3751 47.8125V40.3125C39.3751 37.2769 41.8332 33.75 45.0001 33.75H52.5001C55.667 33.75 58.1251 37.2769 58.1251 40.3125V47.8125C58.1245 48.2623 58.0161 48.7054 57.8092 49.1047C57.6022 49.504 57.3026 49.8479 56.9354 50.1077C56.5682 50.3675 56.1442 50.5355 55.6987 50.5978C55.2533 50.6601 54.7994 50.6148 54.3751 50.4656V57.1875C54.3751 57.4361 54.2763 57.6746 54.1005 57.8504C53.9247 58.0262 53.6862 58.125 53.4376 58.125ZM48.7501 31.875C46.1645 31.875 44.0626 29.7712 44.0626 27.1875C44.0626 24.6038 46.1645 22.5 48.7501 22.5C51.3357 22.5 53.4376 24.6038 53.4376 27.1875C53.4376 29.7712 51.3357 31.875 48.7501 31.875ZM48.7501 24.375C47.1995 24.375 45.9376 25.6369 45.9376 27.1875C45.9376 28.7381 47.1995 30 48.7501 30C50.3007 30 51.5626 28.7381 51.5626 27.1875C51.5626 25.6369 50.3007 24.375 48.7501 24.375Z" fill="#236DFE"/>
<path id="Vector_3" d="M53.4375 48.75C53.1889 48.75 52.9504 48.6512 52.7746 48.4754C52.5988 48.2996 52.5 48.0611 52.5 47.8125V40.3125C52.5 40.0639 52.5988 39.8254 52.7746 39.6496C52.9504 39.4738 53.1889 39.375 53.4375 39.375C53.6861 39.375 53.9246 39.4738 54.1004 39.6496C54.2762 39.8254 54.375 40.0639 54.375 40.3125V47.8125C54.375 48.0611 54.2762 48.2996 54.1004 48.4754C53.9246 48.6512 53.6861 48.75 53.4375 48.75ZM44.0625 48.75C43.8139 48.75 43.5754 48.6512 43.3996 48.4754C43.2238 48.2996 43.125 48.0611 43.125 47.8125V40.3125C43.125 40.0639 43.2238 39.8254 43.3996 39.6496C43.5754 39.4738 43.8139 39.375 44.0625 39.375C44.3111 39.375 44.5496 39.4738 44.7254 39.6496C44.9012 39.8254 45 40.0639 45 40.3125V47.8125C45 48.0611 44.9012 48.2996 44.7254 48.4754C44.5496 48.6512 44.3111 48.75 44.0625 48.75ZM17.8125 58.125C17.5639 58.125 17.3254 58.0262 17.1496 57.8504C16.9738 57.6746 16.875 57.4361 16.875 57.1875V47.8125C16.875 47.5639 16.9738 47.3254 17.1496 47.1496C17.3254 46.9738 17.5639 46.875 17.8125 46.875C18.0611 46.875 18.2996 46.9738 18.4754 47.1496C18.6512 47.3254 18.75 47.5639 18.75 47.8125C18.75 48.0611 18.8488 48.2996 19.0246 48.4754C19.2004 48.6512 19.4389 48.75 19.6875 48.75C19.9361 48.75 20.1746 48.6512 20.3504 48.4754C20.5262 48.2996 20.625 48.0611 20.625 47.8125V40.3125C20.625 38.2031 18.8944 35.625 16.875 35.625H9.375C7.35562 35.625 5.625 38.2031 5.625 40.3125V47.8125C5.625 48.0611 5.72377 48.2996 5.89959 48.4754C6.0754 48.6512 6.31386 48.75 6.5625 48.75C6.81114 48.75 7.0496 48.6512 7.22541 48.4754C7.40123 48.2996 7.5 48.0611 7.5 47.8125C7.5 47.5639 7.59877 47.3254 7.77459 47.1496C7.9504 46.9738 8.18886 46.875 8.4375 46.875C8.68614 46.875 8.9246 46.9738 9.10041 47.1496C9.27623 47.3254 9.375 47.5639 9.375 47.8125V57.1875C9.375 57.4361 9.27623 57.6746 9.10041 57.8504C8.9246 58.0262 8.68614 58.125 8.4375 58.125C8.18886 58.125 7.9504 58.0262 7.77459 57.8504C7.59877 57.6746 7.5 57.4361 7.5 57.1875V50.4656C7.07567 50.6148 6.62179 50.6601 6.17635 50.5978C5.7309 50.5355 5.30685 50.3675 4.93968 50.1077C4.57251 49.8479 4.2729 49.504 4.06592 49.1047C3.85894 48.7054 3.75061 48.2623 3.75 47.8125V40.3125C3.75 37.2769 6.20812 33.75 9.375 33.75H16.875C20.0419 33.75 22.5 37.2769 22.5 40.3125V47.8125C22.4994 48.2623 22.3911 48.7054 22.1841 49.1047C21.9771 49.504 21.6775 49.8479 21.3103 50.1077C20.9431 50.3675 20.5191 50.5355 20.0737 50.5978C19.6282 50.6601 19.1743 50.6148 18.75 50.4656V57.1875C18.75 57.4361 18.6512 57.6746 18.4754 57.8504C18.2996 58.0262 18.0611 58.125 17.8125 58.125ZM13.125 31.875C10.5394 31.875 8.4375 29.7713 8.4375 27.1875C8.4375 24.6037 10.5394 22.5 13.125 22.5C15.7106 22.5 17.8125 24.6037 17.8125 27.1875C17.8125 29.7713 15.7106 31.875 13.125 31.875ZM13.125 24.375C11.5744 24.375 10.3125 25.6369 10.3125 27.1875C10.3125 28.7381 11.5744 30 13.125 30C14.6756 30 15.9375 28.7381 15.9375 27.1875C15.9375 25.6369 14.6756 24.375 13.125 24.375ZM48.75 58.125C48.5014 58.125 48.2629 58.0262 48.0871 57.8504C47.9113 57.6746 47.8125 57.4361 47.8125 57.1875V51.5625C47.8125 51.3139 47.9113 51.0754 48.0871 50.8996C48.2629 50.7238 48.5014 50.625 48.75 50.625C48.9986 50.625 49.2371 50.7238 49.4129 50.8996C49.5887 51.0754 49.6875 51.3139 49.6875 51.5625V57.1875C49.6875 57.4361 49.5887 57.6746 49.4129 57.8504C49.2371 58.0262 48.9986 58.125 48.75 58.125Z" fill="#236DFE"/>
<path id="Vector_4" d="M13.125 58.125C12.8764 58.125 12.6379 58.0262 12.4621 57.8504C12.2863 57.6746 12.1875 57.4361 12.1875 57.1875V51.5625C12.1875 51.3139 12.2863 51.0754 12.4621 50.8996C12.6379 50.7238 12.8764 50.625 13.125 50.625C13.3736 50.625 13.6121 50.7238 13.7879 50.8996C13.9637 51.0754 14.0625 51.3139 14.0625 51.5625V57.1875C14.0625 57.4361 13.9637 57.6746 13.7879 57.8504C13.6121 58.0262 13.3736 58.125 13.125 58.125ZM17.8125 48.75C17.5639 48.75 17.3254 48.6512 17.1496 48.4754C16.9738 48.2996 16.875 48.0611 16.875 47.8125V40.3125C16.875 40.0639 16.9738 39.8254 17.1496 39.6496C17.3254 39.4738 17.5639 39.375 17.8125 39.375C18.0611 39.375 18.2996 39.4738 18.4754 39.6496C18.6512 39.8254 18.75 40.0639 18.75 40.3125V47.8125C18.75 48.0611 18.6512 48.2996 18.4754 48.4754C18.2996 48.6512 18.0611 48.75 17.8125 48.75ZM8.4375 48.75C8.18886 48.75 7.9504 48.6512 7.77459 48.4754C7.59877 48.2996 7.5 48.0611 7.5 47.8125V40.3125C7.5 40.0639 7.59877 39.8254 7.77459 39.6496C7.9504 39.4738 8.18886 39.375 8.4375 39.375C8.68614 39.375 8.9246 39.4738 9.10041 39.6496C9.27623 39.8254 9.375 40.0639 9.375 40.3125V47.8125C9.375 48.0611 9.27623 48.2996 9.10041 48.4754C8.9246 48.6512 8.68614 48.75 8.4375 48.75Z" fill="#236DFE"/>
</g>
</g>
</svg>
