<svg width="60" height="60" viewBox="0 0 60 60" fill="none" xmlns="http://www.w3.org/2000/svg">
<g id="Frame">
<g id="Group">
<path id="Vector" d="M57.1875 58.125H51.5625C51.3139 58.125 51.0754 58.0262 50.8996 57.8504C50.7238 57.6746 50.625 57.4361 50.625 57.1875V15.9375C50.625 15.6889 50.7238 15.4504 50.8996 15.2746C51.0754 15.0988 51.3139 15 51.5625 15H57.1875C57.4361 15 57.6746 15.0988 57.8504 15.2746C58.0262 15.4504 58.125 15.6889 58.125 15.9375V57.1875C58.125 57.4361 58.0262 57.6746 57.8504 57.8504C57.6746 58.0262 57.4361 58.125 57.1875 58.125ZM52.5 56.25H56.25V16.875H52.5V56.25ZM47.8125 58.125H42.1875C41.9389 58.125 41.7004 58.0262 41.5246 57.8504C41.3488 57.6746 41.25 57.4361 41.25 57.1875V25.3125C41.25 25.0639 41.3488 24.8254 41.5246 24.6496C41.7004 24.4738 41.9389 24.375 42.1875 24.375H47.8125C48.0611 24.375 48.2996 24.4738 48.4754 24.6496C48.6512 24.8254 48.75 25.0639 48.75 25.3125V57.1875C48.75 57.4361 48.6512 57.6746 48.4754 57.8504C48.2996 58.0262 48.0611 58.125 47.8125 58.125ZM43.125 56.25H46.875V26.25H43.125V56.25ZM38.4375 58.125H32.8125C32.5639 58.125 32.3254 58.0262 32.1496 57.8504C31.9738 57.6746 31.875 57.4361 31.875 57.1875V34.6875C31.875 34.4389 31.9738 34.2004 32.1496 34.0246C32.3254 33.8488 32.5639 33.75 32.8125 33.75H38.4375C38.6861 33.75 38.9246 33.8488 39.1004 34.0246C39.2762 34.2004 39.375 34.4389 39.375 34.6875V57.1875C39.375 57.4361 39.2762 57.6746 39.1004 57.8504C38.9246 58.0262 38.6861 58.125 38.4375 58.125ZM33.75 56.25H37.5V35.625H33.75V56.25ZM29.0625 58.125H23.4375C23.1889 58.125 22.9504 58.0262 22.7746 57.8504C22.5988 57.6746 22.5 57.4361 22.5 57.1875V44.0625C22.5 43.8139 22.5988 43.5754 22.7746 43.3996C22.9504 43.2238 23.1889 43.125 23.4375 43.125H29.0625C29.3111 43.125 29.5496 43.2238 29.7254 43.3996C29.9012 43.5754 30 43.8139 30 44.0625V57.1875C30 57.4361 29.9012 57.6746 29.7254 57.8504C29.5496 58.0262 29.3111 58.125 29.0625 58.125ZM24.375 56.25H28.125V45H24.375V56.25ZM13.125 13.125C10.0237 13.125 7.5 10.6012 7.5 7.5C7.5 4.39875 10.0237 1.875 13.125 1.875C16.2262 1.875 18.75 4.39875 18.75 7.5C18.75 10.6012 16.2262 13.125 13.125 13.125ZM13.125 3.75C12.6324 3.75012 12.1447 3.84727 11.6896 4.03588C11.2346 4.2245 10.8212 4.50089 10.473 4.84929C10.1247 5.19768 9.84855 5.61125 9.66016 6.06638C9.47178 6.52151 9.37488 7.00929 9.375 7.50187C9.37512 7.99445 9.47227 8.48219 9.66088 8.93722C9.8495 9.39226 10.1259 9.80569 10.4743 10.1539C10.8227 10.5021 11.2362 10.7783 11.6914 10.9667C12.1465 11.1551 12.6343 11.252 13.1269 11.2519C14.1217 11.2516 15.0757 10.8562 15.7789 10.1526C16.4822 9.44897 16.8771 8.49481 16.8769 7.5C16.8766 6.50519 16.4812 5.55122 15.7776 4.84796C15.074 4.1447 14.1198 3.74975 13.125 3.75Z" fill="#236DFE"/>
<path id="Vector_2" d="M4.68748 58.125C4.55123 58.1252 4.41658 58.0957 4.29289 58.0386C4.16921 57.9815 4.05946 57.898 3.97129 57.7942C3.88313 57.6903 3.81866 57.5685 3.78238 57.4371C3.7461 57.3058 3.73888 57.1681 3.76123 57.0337L7.02373 37.4625C6.62093 37.5288 6.20854 37.5068 5.8151 37.3979C5.42167 37.289 5.05661 37.0959 4.74522 36.832C4.43382 36.568 4.18353 36.2395 4.01168 35.8692C3.83983 35.4989 3.75054 35.0957 3.74998 34.6875V21.5625C3.74998 18.5269 6.2081 15 9.37498 15H36.5625C38.1131 15 39.375 16.2619 39.375 17.8125C39.375 19.3631 38.1131 20.625 36.5625 20.625H20.625V57.1875C20.625 57.4361 20.5262 57.6746 20.3504 57.8504C20.1746 58.0262 19.9361 58.125 19.6875 58.125C19.4388 58.125 19.2004 58.0262 19.0246 57.8504C18.8487 57.6746 18.75 57.4361 18.75 57.1875V19.6875C18.75 19.4389 18.8487 19.2004 19.0246 19.0246C19.2004 18.8488 19.4388 18.75 19.6875 18.75H36.5625C36.8111 18.75 37.0496 18.6512 37.2254 18.4754C37.4012 18.2996 37.5 18.0611 37.5 17.8125C37.5 17.5639 37.4012 17.3254 37.2254 17.1496C37.0496 16.9738 36.8111 16.875 36.5625 16.875H9.37498C7.3556 16.875 5.62498 19.4531 5.62498 21.5625V34.6875C5.6248 34.9041 5.69961 35.114 5.83669 35.2817C5.97378 35.4493 6.16468 35.5644 6.37696 35.6072C6.58925 35.6501 6.80983 35.6181 7.00121 35.5168C7.1926 35.4154 7.343 35.2509 7.42685 35.0513L7.5131 34.5337C7.55609 34.3038 7.68154 34.0975 7.86591 33.9535C8.05027 33.8095 8.28086 33.7378 8.51435 33.7519C8.74879 33.772 8.96718 33.8793 9.12648 34.0524C9.28578 34.2256 9.37444 34.4522 9.37498 34.6875C9.37498 34.9781 9.33185 35.2575 9.24935 35.52L5.61185 57.3413C5.57582 57.5603 5.46305 57.7594 5.29371 57.903C5.12437 58.0466 4.90949 58.1253 4.68748 58.125Z" fill="#236DFE"/>
<path id="Vector_3" d="M8.43727 35.625C8.18863 35.625 7.95017 35.5262 7.77436 35.3504C7.59854 35.1746 7.49977 34.9361 7.49977 34.6875V23.4375C7.49977 23.1889 7.59854 22.9504 7.77436 22.7746C7.95017 22.5988 8.18863 22.5 8.43727 22.5C8.68591 22.5 8.92436 22.5988 9.10018 22.7746C9.276 22.9504 9.37477 23.1889 9.37477 23.4375V34.6875C9.37477 34.9361 9.276 35.1746 9.10018 35.3504C8.92436 35.5262 8.68591 35.625 8.43727 35.625ZM8.43727 58.125C8.294 58.125 8.15264 58.0922 8.02402 58.0291C7.89541 57.966 7.78297 57.8743 7.69534 57.7609C7.60771 57.6476 7.54722 57.5157 7.51852 57.3753C7.48982 57.235 7.49366 57.0899 7.52977 56.9513L13.1548 35.3888C13.2105 35.1748 13.34 34.9875 13.5205 34.8598C13.7009 34.7321 13.9207 34.6723 14.141 34.6909C14.3612 34.7095 14.5678 34.8054 14.7243 34.9615C14.8808 35.1177 14.977 35.3241 14.996 35.5444L16.871 57.1069C16.8926 57.3548 16.8149 57.6011 16.6549 57.7917C16.4949 57.9823 16.2658 58.1015 16.0179 58.1231C15.77 58.1448 15.5237 58.067 15.3331 57.907C15.1425 57.747 15.0233 57.5179 15.0016 57.27L13.5973 41.1169L9.34289 57.4238C9.29067 57.6243 9.17347 57.8019 9.00962 57.9288C8.84577 58.0556 8.6445 58.1246 8.43727 58.125Z" fill="#236DFE"/>
</g>
</g>
</svg>
