<svg width="60" height="60" viewBox="0 0 60 60" fill="none" xmlns="http://www.w3.org/2000/svg">
<g id="Frame">
<g id="Group">
<path id="Vector" d="M30.8587 15.304C29.0193 15.304 27.1518 15.2271 25.3162 15.0752C25.1934 15.0651 25.0739 15.0308 24.9644 14.9744C24.8548 14.918 24.7575 14.8406 24.6779 14.7465C24.5984 14.6525 24.5381 14.5437 24.5006 14.4264C24.4631 14.309 24.449 14.1855 24.4593 14.0627C24.5006 13.5471 25.0087 13.174 25.4699 13.2058C33.462 13.8702 41.5081 13.0502 49.2018 10.7871C49.3205 10.7501 49.4454 10.7371 49.5691 10.7488C49.6929 10.7605 49.8131 10.7967 49.9227 10.8553C50.0323 10.9139 50.1292 10.9937 50.2077 11.0901C50.2862 11.1865 50.3448 11.2976 50.3799 11.4168C50.4151 11.536 50.4262 11.661 50.4127 11.7846C50.3991 11.9082 50.361 12.0278 50.3008 12.1365C50.2405 12.2453 50.1592 12.3409 50.0617 12.418C49.9641 12.495 49.8522 12.5518 49.7324 12.5852C43.6034 14.3887 37.2475 15.3043 30.8587 15.304ZM49.4681 47.554C49.3778 47.5546 49.288 47.5413 49.2018 47.5146C41.508 45.2518 33.4622 44.4311 25.4699 45.094C25.2241 45.1065 24.9827 45.0249 24.7949 44.8657C24.6072 44.7065 24.4871 44.4817 24.4593 44.2371C24.449 44.1143 24.4631 43.9908 24.5006 43.8734C24.5381 43.7561 24.5984 43.6473 24.6779 43.5533C24.7575 43.4592 24.8548 43.3818 24.9644 43.3254C25.0739 43.269 25.1934 43.2348 25.3162 43.2246C33.5287 42.5458 41.8312 43.3915 49.7324 45.7165C49.9492 45.7797 50.1359 45.9191 50.2582 46.1089C50.3804 46.2988 50.4301 46.5264 50.3979 46.75C50.3657 46.9735 50.254 47.1779 50.0831 47.3256C49.9123 47.4733 49.6939 47.5544 49.4681 47.554Z" fill="#236DFE"/>
<path id="Vector_2" d="M32.085 55.5731C31.8846 55.5731 31.6895 55.509 31.5283 55.3901C31.367 55.2712 31.2481 55.1037 31.1889 54.9122C31.1298 54.7208 31.1336 54.5154 31.1997 54.3263C31.2658 54.1371 31.3907 53.9741 31.5562 53.8612C39.7969 48.2399 44.715 38.9999 44.715 29.1431C44.715 19.2862 39.7969 10.0462 31.5562 4.42494C31.3509 4.28471 31.2096 4.06864 31.1636 3.82425C31.1175 3.57987 31.1704 3.3272 31.3106 3.12182C31.4509 2.91644 31.6669 2.77518 31.9113 2.72912C32.1557 2.68306 32.4084 2.73596 32.6137 2.87619C41.3644 8.84807 46.5881 18.6674 46.5881 29.1431C46.5881 39.6187 41.3644 49.4381 32.6137 55.4099C32.4578 55.516 32.2736 55.5728 32.085 55.5731Z" fill="#236DFE"/>
<path id="Vector_3" d="M30.9374 55.2939C30.6887 55.2939 30.4503 55.1951 30.2745 55.0193C30.0987 54.8435 29.9999 54.6051 29.9999 54.3564V3.93018C29.9999 3.68154 30.0987 3.44308 30.2745 3.26726C30.4503 3.09145 30.6887 2.99268 30.9374 2.99268C31.186 2.99268 31.4245 3.09145 31.6003 3.26726C31.7761 3.44308 31.8749 3.68154 31.8749 3.93018V54.3564C31.8749 54.6051 31.7761 54.8435 31.6003 55.0193C31.4245 55.1951 31.186 55.2939 30.9374 55.2939Z" fill="#236DFE"/>
<path id="Vector_4" d="M57.0093 30H25.333C25.0844 30 24.8459 29.9012 24.6701 29.7254C24.4943 29.5496 24.3955 29.3111 24.3955 29.0625C24.3955 28.8139 24.4943 28.5754 24.6701 28.3996C24.8459 28.2238 25.0844 28.125 25.333 28.125H57.0111C57.1342 28.1251 57.2561 28.1495 57.3698 28.1967C57.4835 28.2439 57.5868 28.3131 57.6738 28.4003C57.7607 28.4874 57.8297 28.5908 57.8767 28.7046C57.9237 28.8184 57.9478 28.9403 57.9477 29.0634C57.9476 29.1866 57.9232 29.3084 57.876 29.4221C57.8287 29.5358 57.7596 29.6391 57.6724 29.7261C57.5853 29.813 57.4819 29.882 57.3681 29.929C57.2543 29.976 57.1324 30.0001 57.0093 30Z" fill="#236DFE"/>
<path id="Vector_5" d="M30.8587 56.3306C28.215 56.3306 25.5994 55.9519 23.0869 55.2038C22.8558 55.1269 22.6637 54.9633 22.5512 54.7473C22.4387 54.5314 22.4146 54.2802 22.4841 54.0468C22.5535 53.8134 22.711 53.6162 22.9232 53.4969C23.1355 53.3776 23.3858 53.3455 23.6213 53.4075C25.9594 54.1031 28.395 54.4556 30.8569 54.4556C44.8144 54.4556 56.1694 43.1006 56.1694 29.1431C56.1694 15.1856 44.8144 3.83062 30.8569 3.83062C29.0344 3.83062 27.2194 4.02563 25.4587 4.40813C25.3383 4.43435 25.214 4.4366 25.0927 4.41475C24.9714 4.3929 24.8556 4.34738 24.7519 4.28078C24.6483 4.21418 24.5587 4.12782 24.4884 4.02661C24.4181 3.9254 24.3684 3.81134 24.3422 3.69094C24.316 3.57053 24.3137 3.44614 24.3356 3.32486C24.3574 3.20359 24.4029 3.0878 24.4695 2.98412C24.5361 2.88044 24.6225 2.79089 24.7237 2.72058C24.8249 2.65028 24.939 2.6006 25.0594 2.57438C26.9643 2.16235 28.9079 1.95492 30.8569 1.95562C45.8475 1.95562 58.0444 14.1525 58.0444 29.1431C58.0444 44.1338 45.8494 56.3306 30.8587 56.3306ZM17.8125 58.125C17.5639 58.125 17.3254 58.0262 17.1496 57.8504C16.9738 57.6746 16.875 57.4361 16.875 57.1875V34.6875H18.75C18.75 34.9361 18.8488 35.1746 19.0246 35.3504C19.2004 35.5262 19.4389 35.625 19.6875 35.625C19.9361 35.625 20.1746 35.5262 20.3504 35.3504C20.5262 35.1746 20.625 34.9361 20.625 34.6875V21.5625C20.625 19.4531 18.8944 16.875 16.875 16.875H7.5C5.48062 16.875 3.75 19.4531 3.75 21.5625V34.6875C3.75 34.9361 3.84877 35.1746 4.02459 35.3504C4.2004 35.5262 4.43886 35.625 4.6875 35.625C4.93614 35.625 5.1746 35.5262 5.35041 35.3504C5.52623 35.1746 5.625 34.9361 5.625 34.6875H7.5V57.1875C7.5 57.4361 7.40123 57.6746 7.22541 57.8504C7.0496 58.0262 6.81114 58.125 6.5625 58.125C6.31386 58.125 6.0754 58.0262 5.89959 57.8504C5.72377 57.6746 5.625 57.4361 5.625 57.1875V37.3406C5.20067 37.4898 4.74679 37.5351 4.30135 37.4728C3.8559 37.4105 3.43185 37.2425 3.06468 36.9827C2.69751 36.7229 2.3979 36.379 2.19092 35.9797C1.98394 35.5804 1.87561 35.1373 1.875 34.6875V21.5625C1.875 18.5269 4.33312 15 7.5 15H16.875C20.0419 15 22.5 18.5269 22.5 21.5625V34.6875C22.4994 35.1373 22.3911 35.5804 22.1841 35.9797C21.9771 36.379 21.6775 36.7229 21.3103 36.9827C20.9431 37.2425 20.5191 37.4105 20.0737 37.4728C19.6282 37.5351 19.1743 37.4898 18.75 37.3406V57.1875C18.75 57.4361 18.6512 57.6746 18.4754 57.8504C18.2996 58.0262 18.0611 58.125 17.8125 58.125ZM12.1875 13.125C9.08625 13.125 6.5625 10.6012 6.5625 7.5C6.5625 4.39875 9.08625 1.875 12.1875 1.875C15.2887 1.875 17.8125 4.39875 17.8125 7.5C17.8125 10.6012 15.2887 13.125 12.1875 13.125ZM12.1875 3.75C10.1175 3.75 8.4375 5.43187 8.4375 7.5C8.4375 9.56813 10.1175 11.25 12.1875 11.25C14.2575 11.25 15.9375 9.56813 15.9375 7.5C15.9375 5.43187 14.2575 3.75 12.1875 3.75Z" fill="#236DFE"/>
<path id="Vector_6" d="M6.5625 58.125C6.31386 58.125 6.0754 58.0262 5.89959 57.8504C5.72377 57.6746 5.625 57.4361 5.625 57.1875V30.9375C5.625 30.6889 5.72377 30.4504 5.89959 30.2746C6.0754 30.0988 6.31386 30 6.5625 30C6.81114 30 7.0496 30.0988 7.22541 30.2746C7.40123 30.4504 7.5 30.6889 7.5 30.9375V57.1875C7.5 57.4361 7.40123 57.6746 7.22541 57.8504C7.0496 58.0262 6.81114 58.125 6.5625 58.125ZM17.8125 58.125C17.5639 58.125 17.3254 58.0262 17.1496 57.8504C16.9738 57.6746 16.875 57.4361 16.875 57.1875V30.9375C16.875 30.6889 16.9738 30.4504 17.1496 30.2746C17.3254 30.0988 17.5639 30 17.8125 30C18.0611 30 18.2996 30.0988 18.4754 30.2746C18.6512 30.4504 18.75 30.6889 18.75 30.9375V57.1875C18.75 57.4361 18.6512 57.6746 18.4754 57.8504C18.2996 58.0262 18.0611 58.125 17.8125 58.125Z" fill="#236DFE"/>
<path id="Vector_7" d="M17.8125 35.625C17.5639 35.625 17.3254 35.5262 17.1496 35.3504C16.9738 35.1746 16.875 34.9361 16.875 34.6875V23.4375C16.875 23.1889 16.9738 22.9504 17.1496 22.7746C17.3254 22.5988 17.5639 22.5 17.8125 22.5C18.0611 22.5 18.2996 22.5988 18.4754 22.7746C18.6512 22.9504 18.75 23.1889 18.75 23.4375V34.6875C18.75 34.9361 18.6512 35.1746 18.4754 35.3504C18.2996 35.5262 18.0611 35.625 17.8125 35.625ZM6.5625 35.625C6.31386 35.625 6.0754 35.5262 5.89959 35.3504C5.72377 35.1746 5.625 34.9361 5.625 34.6875V23.4375C5.625 23.1889 5.72377 22.9504 5.89959 22.7746C6.0754 22.5988 6.31386 22.5 6.5625 22.5C6.81114 22.5 7.0496 22.5988 7.22541 22.7746C7.40123 22.9504 7.5 23.1889 7.5 23.4375V34.6875C7.5 34.9361 7.40123 35.1746 7.22541 35.3504C7.0496 35.5262 6.81114 35.625 6.5625 35.625ZM12.1875 58.125C11.9389 58.125 11.7004 58.0262 11.5246 57.8504C11.3488 57.6746 11.25 57.4361 11.25 57.1875V38.4375C11.25 38.1889 11.3488 37.9504 11.5246 37.7746C11.7004 37.5988 11.9389 37.5 12.1875 37.5C12.4361 37.5 12.6746 37.5988 12.8504 37.7746C13.0262 37.9504 13.125 38.1889 13.125 38.4375V57.1875C13.125 57.4361 13.0262 57.6746 12.8504 57.8504C12.6746 58.0262 12.4361 58.125 12.1875 58.125Z" fill="#236DFE"/>
</g>
</g>
</svg>
