<svg width="88" height="88" viewBox="0 0 88 88" fill="none" xmlns="http://www.w3.org/2000/svg">
<g id="logo Solon Global &#209;&#134;&#208;&#178;&#208;&#181;&#209;&#130; &#208;&#187;&#208;&#190;&#208;&#179;&#208;&#190; 1">
<path id="Vector" d="M82.2362 66.0512H8.30383V63.1947H7.42383V66.9312H83.1161V63.1947H82.2362V66.0512ZM7.42383 54.1782V57.9147H8.30383V55.0582H82.2362V57.9147H83.1161V54.1782H7.42383Z" fill="white"/>
<g id="Group">
<g id="Group_2">
<path id="Vector_2" d="M20.5091 60.8221H21.9417V63.5712C21.5739 63.8493 21.1479 64.0623 20.6639 64.2101C20.1799 64.3579 19.6924 64.4336 19.2031 64.4336C18.4991 64.4336 17.8673 64.284 17.3059 63.9831C16.7444 63.6821 16.3044 63.2667 15.9841 62.7352C15.6655 62.2019 15.5054 61.6018 15.5054 60.9295C15.5054 60.2571 15.6655 59.657 15.9841 59.1237C16.3044 58.5922 16.7479 58.1751 17.3147 57.8759C17.8814 57.5767 18.522 57.4253 19.2313 57.4253C19.8244 57.4253 20.363 57.5256 20.847 57.7263C21.331 57.9269 21.7375 58.2173 22.0667 58.5975L21.0599 59.5267C20.5759 59.0163 19.9916 58.7611 19.307 58.7611C18.874 58.7611 18.4903 58.8509 18.1559 59.0322C17.8198 59.2135 17.5593 59.4687 17.371 59.7978C17.1844 60.1269 17.0911 60.5035 17.0911 60.9295C17.0911 61.3483 17.1844 61.7232 17.371 62.0523C17.5575 62.3815 17.818 62.6384 18.1507 62.8215C18.4833 63.0045 18.8617 63.0978 19.2876 63.0978C19.7399 63.0978 20.1465 63.001 20.5073 62.8074V60.8221H20.5091Z" fill="white"/>
<path id="Vector_3" d="M26.9839 57.5415H28.552V63.0397H31.9506V64.3175H26.9856V57.5415H26.9839Z" fill="white"/>
<path id="Vector_4" d="M37.6866 63.978C37.1217 63.6752 36.6799 63.2564 36.3596 62.7248C36.041 62.1933 35.8809 61.5949 35.8809 60.9296C35.8809 60.2644 36.041 59.666 36.3596 59.1344C36.6799 58.6012 37.1217 58.184 37.6866 57.8813C38.2516 57.5786 38.8852 57.4272 39.5892 57.4272C40.2932 57.4272 40.925 57.5786 41.4865 57.8813C42.0479 58.184 42.4897 58.6029 42.8135 59.1344C43.1356 59.666 43.2975 60.2661 43.2975 60.9296C43.2975 61.5949 43.1356 62.1933 42.8135 62.7248C42.4914 63.2581 42.0479 63.6752 41.4865 63.978C40.925 64.2807 40.2932 64.432 39.5892 64.432C38.8852 64.4338 38.2498 64.2807 37.6866 63.978ZM40.6716 62.8216C40.9937 62.6368 41.2471 62.3816 41.4319 62.0525C41.6167 61.7234 41.7082 61.3485 41.7082 60.9296C41.7082 60.5108 41.6167 60.1359 41.4319 59.8068C41.2471 59.4776 40.9954 59.2207 40.6716 59.0376C40.3495 58.8546 39.9869 58.7613 39.5874 58.7613C39.1879 58.7613 38.8253 58.8528 38.5033 59.0376C38.1812 59.2224 37.9277 59.4776 37.7429 59.8068C37.5581 60.1359 37.4666 60.5108 37.4666 60.9296C37.4666 61.3485 37.5581 61.7234 37.7429 62.0525C37.9277 62.3816 38.1794 62.6386 38.5033 62.8216C38.8253 63.0047 39.1879 63.098 39.5874 63.098C39.9869 63.098 40.3495 63.0047 40.6716 62.8216Z" fill="white"/>
<path id="Vector_5" d="M53.9523 61.408C54.1723 61.6949 54.2815 62.0487 54.2815 62.4676C54.2815 63.0607 54.0509 63.5183 53.5898 63.8368C53.1287 64.1572 52.4563 64.3156 51.5711 64.3156H48.0669V57.5396H51.3775C52.2029 57.5396 52.8383 57.698 53.28 58.0148C53.7218 58.3316 53.9435 58.7592 53.9435 59.3013C53.9435 59.6304 53.8643 59.9244 53.7059 60.1813C53.5475 60.44 53.3275 60.6424 53.0424 60.792C53.4296 60.9152 53.7341 61.1212 53.9523 61.408ZM49.6263 58.7223V60.3204H51.1856C51.5728 60.3204 51.8667 60.2535 52.0656 60.1162C52.2663 59.9807 52.3666 59.78 52.3666 59.516C52.3666 59.252 52.2663 59.0532 52.0656 58.9212C51.865 58.7892 51.5711 58.7223 51.1856 58.7223H49.6263ZM52.3895 62.9322C52.5989 62.7967 52.7045 62.5872 52.7045 62.3021C52.7045 61.7407 52.2874 61.4608 51.4567 61.4608H49.6263V63.1346H51.4567C51.8685 63.1364 52.18 63.0677 52.3895 62.9322Z" fill="white"/>
<path id="Vector_6" d="M63.5268 62.8655H60.3799L59.7797 64.3175H58.1729L61.193 57.5415H62.7418L65.7708 64.3175H64.1252L63.5268 62.8655ZM63.0322 61.674L61.9569 59.0797L60.8833 61.674H63.0322Z" fill="white"/>
<path id="Vector_7" d="M70.0708 57.5415H71.639V63.0397H75.0375V64.3175H70.0726V57.5415H70.0708Z" fill="white"/>
</g>
</g>
<g id="Group_3">
<path id="Vector_8" d="M15.1006 42.0974V46.0099C15.1006 47.835 16.3608 48.8787 17.8832 48.8787C19.4478 48.8787 20.708 47.835 20.708 46.0099V40.0541C20.708 35.1859 12.6666 37.2715 12.6666 30.5342V25.1011C12.6666 21.9718 15.0144 20.189 17.8832 20.189C20.796 20.189 23.1438 21.9718 23.1438 25.1011V29.0576H20.6658V25.1011C20.6658 23.3182 19.4056 22.2763 17.8832 22.2763C16.3608 22.2763 15.1446 23.32 15.1446 25.1011V30.5342C15.1446 35.4464 23.1861 33.359 23.1861 40.0541V46.0099C23.1861 49.1832 20.796 50.9661 17.8832 50.9661C14.9704 50.9661 12.6226 49.1832 12.6226 46.0099V42.0974H15.1006Z" fill="white"/>
<path id="Vector_9" d="M37.1412 25.1874V46.0099C37.1412 49.1832 34.7511 50.9661 31.8383 50.9661C28.9255 50.9661 26.5776 49.1832 26.5776 46.0099V25.1874C26.5776 22.0141 28.9255 20.189 31.8383 20.189C34.7493 20.189 37.1412 22.0141 37.1412 25.1874ZM29.0557 46.0099C29.0557 47.835 30.3159 48.8787 31.8383 48.8787C33.4029 48.8787 34.6631 47.835 34.6631 46.0099V25.1874C34.6631 23.3622 33.4029 22.2746 31.8383 22.2746C30.3159 22.2746 29.0557 23.3605 29.0557 25.1874V46.0099Z" fill="white"/>
<path id="Vector_10" d="M40.8794 20.3633H43.3575V48.7063H50.313V50.7937H40.8794V20.3633Z" fill="white"/>
<path id="Vector_11" d="M63.5289 25.1874V46.0099C63.5289 49.1832 61.1388 50.9661 58.226 50.9661C55.3132 50.9661 52.9653 49.1832 52.9653 46.0099V25.1874C52.9653 22.0141 55.3132 20.189 58.226 20.189C61.137 20.189 63.5289 22.0141 63.5289 25.1874ZM55.4417 46.0099C55.4417 47.835 56.7018 48.8787 58.2242 48.8787C59.7889 48.8787 61.049 47.835 61.049 46.0099V25.1874C61.049 23.3622 59.7889 22.2746 58.2242 22.2746C56.7018 22.2746 55.4417 23.3605 55.4417 25.1874V46.0099Z" fill="white"/>
<path id="Vector_12" d="M67.2671 20.3633H69.5269L75.4388 43.2732H75.525V20.3633H77.9151V50.7937H75.6552L69.7434 27.8838H69.6572V50.7937H67.2671V20.3633Z" fill="white"/>
</g>
</g>
</svg>
